# xmcd
#
# Track frame offsets: 
#        150
#        14500
#        27940
#        39894
#        52184
#        64404
#        76261
#        93823
#        106853
#        120458
#
# Disc length: 1716 seconds
#
# Revision: 0
# Processed by: cddbd v1.5PL3 Copyright (c) Steve Scherf et al.
# Submitted via: ExactAudioCopy v0.90b4
#
DISCID=7506b20a
DTITLE=Johnny Cash - Greatest Hits Vol. III (Vinyl)
DYEAR=1978
DGENRE=Country
TTITLE0=There Ain't No Chain Gang
TTITLE1=Oney
TTITLE2=Any Old Wind That Blows
TTITLE3=You Give Me That Old Time Feeling
TTITLE4=I would Like to See You Again
TTITLE5=I Wish I Was Crazy Again
TTITLE6=One Piece At A Time
TTITLE7=After The Ball
TTITLE8=Lady
TTITLE9=It's All Over
EXTD=
EXTT0=
EXTT1=
EXTT2=
EXTT3=
EXTT4=
EXTT5=
EXTT6=
EXTT7=
EXTT8=
EXTT9=
PLAYORDER=
